<svg xmlns="http://www.w3.org/2000/svg" preserveAspectRatio="none" viewBox="0 0 115 48" width="115" height="48"><rect width="115" height="48" fill="#eee9dd"/><g fill="#151515" shape-rendering="crispEdges"><rect x="7.00" y="6" width="0.95" height="32"/><rect x="8.90" y="6" width="0.95" height="32"/><rect x="11.75" y="6" width="0.95" height="32"/><rect x="15.55" y="6" width="1.90" height="29"/><rect x="18.40" y="6" width="0.95" height="29"/><rect x="21.25" y="6" width="2.85" height="29"/><rect x="25.05" y="6" width="0.95" height="29"/><rect x="26.95" y="6" width="1.90" height="29"/><rect x="30.75" y="6" width="0.95" height="29"/><rect x="34.55" y="6" width="0.95" height="29"/><rect x="36.45" y="6" width="1.90" height="29"/><rect x="39.30" y="6" width="1.90" height="29"/><rect x="44.05" y="6" width="0.95" height="29"/><rect x="45.95" y="6" width="0.95" height="29"/><rect x="48.80" y="6" width="2.85" height="29"/><rect x="52.60" y="6" width="1.90" height="29"/><rect x="55.45" y="6" width="0.95" height="29"/><rect x="59.25" y="6" width="1.90" height="29"/><rect x="62.10" y="6" width="1.90" height="29"/><rect x="64.95" y="6" width="0.95" height="29"/><rect x="67.80" y="6" width="0.95" height="29"/><rect x="69.70" y="6" width="2.85" height="29"/><rect x="74.45" y="6" width="0.95" height="29"/><rect x="77.30" y="6" width="0.95" height="29"/><rect x="79.20" y="6" width="2.85" height="29"/><rect x="83.00" y="6" width="1.90" height="29"/><rect x="86.80" y="6" width="0.95" height="29"/><rect x="88.70" y="6" width="1.90" height="29"/><rect x="93.45" y="6" width="0.95" height="29"/><rect x="95.35" y="6" width="1.90" height="29"/><rect x="98.20" y="6" width="0.95" height="32"/><rect x="101.05" y="6" width="1.90" height="32"/><rect x="103.90" y="6" width="0.95" height="32"/></g><text x="57.5" y="43" text-anchor="middle" font-family="monospace" font-size="7" letter-spacing="1.1" fill="#151515">0 18003 00018 2</text></svg>
